<svg xmlns="http://www.w3.org/2000/svg" viewBox="0 0 1920 1080" width="1920" height="1080">
  <defs>
    <linearGradient id="sky" x1="0" y1="0" x2="1" y2="1">
      <stop offset="0" stop-color="#07151b"/>
      <stop offset="0.52" stop-color="#0a2930"/>
      <stop offset="1" stop-color="#16080d"/>
    </linearGradient>
    <radialGradient id="redGlow" cx="78%" cy="42%" r="44%">
      <stop offset="0" stop-color="#d51d29" stop-opacity="0.42"/>
      <stop offset="0.55" stop-color="#7b101b" stop-opacity="0.14"/>
      <stop offset="1" stop-color="#020609" stop-opacity="0"/>
    </radialGradient>
    <radialGradient id="cyanGlow" cx="21%" cy="54%" r="38%">
      <stop offset="0" stop-color="#18a6b4" stop-opacity="0.24"/>
      <stop offset="1" stop-color="#081217" stop-opacity="0"/>
    </radialGradient>
    <linearGradient id="ground" x1="0" y1="0" x2="0" y2="1">
      <stop offset="0" stop-color="#101a1d"/>
      <stop offset="1" stop-color="#020506"/>
    </linearGradient>
    <filter id="blur24"><feGaussianBlur stdDeviation="24"/></filter>
  </defs>

  <rect width="1920" height="1080" fill="url(#sky)"/>
  <rect width="1920" height="1080" fill="url(#redGlow)"/>
  <rect width="1920" height="1080" fill="url(#cyanGlow)"/>

  <circle cx="1498" cy="282" r="96" fill="#f04b37" opacity="0.12" filter="url(#blur24)"/>
  <circle cx="1498" cy="282" r="52" fill="#f08a62" opacity="0.30"/>

  <g fill="#071014" opacity="0.94">
    <path d="M0 590H168V350h86v240h114V444h72v146h114V270h105v320h128V405h64v185h151V332h118v258h112V470h77v120h139V302h120v288h108V415h78v175h166v490H0z"/>
    <path d="M70 350h28v-79h21v79zm512-80h25v-86h18v86zm866 32h26v-116h20v116z"/>
  </g>

  <g fill="#173039" opacity="0.55">
    <rect x="211" y="404" width="13" height="38"/><rect x="211" y="478" width="13" height="38"/>
    <rect x="594" y="328" width="18" height="46"/><rect x="632" y="328" width="18" height="46"/><rect x="594" y="410" width="18" height="46"/>
    <rect x="1049" y="386" width="16" height="40"/><rect x="1083" y="386" width="16" height="40"/>
    <rect x="1483" y="360" width="18" height="44"/><rect x="1524" y="360" width="18" height="44"/>
  </g>
  <g fill="#9f1e28" opacity="0.70">
    <rect x="1518" y="474" width="18" height="41"/><rect x="1557" y="474" width="18" height="41"/><rect x="1518" y="535" width="18" height="41"/>
  </g>

  <path d="M0 694c208-70 369-31 548-9 201 24 333-15 515-28 255-17 482 30 857 2v421H0z" fill="url(#ground)"/>
  <path d="M0 797c231-20 372 38 603 47 247 10 461-60 737-37 189 15 374 72 580 52v221H0z" fill="#040708"/>

  <!-- distant infected silhouettes -->
  <g fill="#020405" opacity="0.78">
    <g transform="translate(1320 650)"><circle cx="0" cy="-47" r="22"/><path d="M-20-27h38l17 91-20 92h-20l-4-74-10 74h-21l5-93z"/><path d="M-17-13l-71 53-8-15 65-70zm32-9 82 35-7 17-86-21z"/></g>
    <g transform="translate(1600 680) scale(.78)"><circle cx="0" cy="-47" r="22"/><path d="M-20-27h38l17 91-20 92h-20l-4-74-10 74h-21l5-93z"/><path d="M-17-13l-71 53-8-15 65-70zm32-9 82 35-7 17-86-21z"/></g>
    <g transform="translate(1155 710) scale(.62)"><circle cx="0" cy="-47" r="22"/><path d="M-20-27h38l17 91-20 92h-20l-4-74-10 74h-21l5-93z"/></g>
  </g>

  <!-- foreground survivor silhouette -->
  <g transform="translate(910 790)" fill="#030608">
    <circle cx="0" cy="-225" r="43"/>
    <path d="M-43-182h84l37 158-32 180H13L3 43-14 156h-35L-64-25z"/>
    <path d="M-35-160l-82 122-23-16 75-144zm70 3 74 71-18 20-83-59z"/>
    <path d="M75-87l168-111 13 18L96-49z"/>
    <rect x="230" y="-213" width="156" height="15" rx="7" transform="rotate(-6 230 -213)"/>
    <rect x="361" y="-221" width="36" height="28" rx="4"/>
  </g>

  <path d="M0 930h1920v150H0z" fill="#020405" opacity="0.55"/>
  <path d="M0 935h1920" stroke="#16a0ad" stroke-width="2" opacity="0.30"/>
  <path d="M1330 0l590 0v1080h-710z" fill="#b31622" opacity="0.035"/>

  <g font-family="sans-serif" fill="#eef6f6">
    <text x="105" y="150" font-size="58" font-weight="700" letter-spacing="4">NEXORA: DEADFALL</text>
    <text x="109" y="198" font-size="20" letter-spacing="9" fill="#64c4ca">SURVIVE  ·  ADAPT  ·  ESCAPE</text>
  </g>
  <rect x="104" y="224" width="172" height="5" rx="2" fill="#e51e2b"/>
  <rect x="282" y="224" width="66" height="5" rx="2" fill="#1fb5bf"/>
</svg>
